<!-- Generator: Adobe Illustrator 21.0.2, SVG Export Plug-In  -->
<svg version="1.1"
	 xmlns="http://www.w3.org/2000/svg" xmlns:xlink="http://www.w3.org/1999/xlink" xmlns:a="http://ns.adobe.com/AdobeSVGViewerExtensions/3.0/"
	 x="0px" y="0px" width="158.3px" height="146.3px" viewBox="0 0 158.3 146.3" style="enable-background:new 0 0 158.3 146.3;"
	 xml:space="preserve">
<style type="text/css">
	.st0{clip-path:url(#SVGID_2_);fill:#CF1F2E;}
	.st1{fill:#CF1F2E;}
	.st2{fill:#FFFFFF;}
	.st3{clip-path:url(#SVGID_4_);fill:#CF1F2E;}
</style>
<defs>
</defs>
<g>
	<g>
		<defs>
			<rect id="SVGID_1_" width="158.3" height="146.3"/>
		</defs>
		<clipPath id="SVGID_2_">
			<use xlink:href="#SVGID_1_"  style="overflow:visible;"/>
		</clipPath>
		<polygon class="st0" points="2.4,24 27.8,24 27.8,146.3 2.4,146.3 2.4,24 		"/>
		<path class="st0" d="M1.6,7.3C1.5,6.3,3.3,3.6,5,3.6c1.7,0,2.6,1.6,3.8,3.1c1.2,1.5,2.1,2.1,2.8,1.7c0.5-0.3,0.5-1.2,0.3-1.8
			c-0.3-0.8-1-1.4-0.6-2.5c0.4-1,1.6-1.6,2.9-1.8c1.3-0.2,3.7-0.1,5.2-0.5c2.5-0.7,3.1-2.1,4.2-1.4c0.6,0.4,0.7,1.2,0.4,2.2
			c-0.3,0.8-0.7,1.8-1.6,2.6c-0.6,0.6-1.6,1-2.6,1.4c-1.2,0.6-2.2,1-2,2.4c0.1,0.5,0.8,0.8,1.5,0.7c0.9-0.1,2-0.4,3-0.5
			c1.6-0.1,3.8,0.7,4.9,1.2c1.1,0.5,1.9,1.3,3.6,3c0.6,0.6,2.3,2.7,2.5,2.9c0.7,0.7,1.5,1.4,1.9,1.8c0.2,0.2,0.2,0.2,0.2,0.2
			s0,0-0.2,0c-0.2-0.1-0.6-0.3-1.3-0.8c-0.7-0.5-3.9-3.2-4.3-3.5c-0.6-0.5-1.9-1.6-2.7-0.9c-0.4,0.3-0.3,1.1-0.2,1.4
			c0.1,0.4,0.6,1.1,0.9,1.7c0.3,0.7,0.3,2.2,0.5,2.8c0.2,0.6,0.9,2.1,0.3,3c-0.4,0.6-1.3,0.8-2.1,0.9c-0.6,0-1.3-0.1-1.5-0.6
			c-0.5-1.2,1-1.4,0.5-2.5c-0.2-0.4-0.7-0.3-1-0.2c-0.5,0.2-0.9,0.6-1.3,0.9c-0.2,0.2-1.2,1-2.1,1.7c-0.8,0.6-1.8,0.6-2.2,0.2
			c-0.8-1.1,1.4-1.8,1.9-2.2c1.4-1,2.5-2.5,1.4-3.9c-0.8-1-2.2-0.8-4-0.4c-2,0.5-4.3,1.1-5.6,1.4c-1.5,0.4-3.3,0.6-4.2,1.1
			c-0.8,0.3-2.8,2.5-2.9,2.6c-0.2,0.2-1.2,1.2-1.5,1.4c-0.6,0.4-2.3,0.9-2.7,0.1c-0.4-0.9,1-1.3,1.6-1.8c0.5-0.4,1.9-1.7,1.9-2.9
			c0-1-0.8-1.7-1.2-3.7c-0.3-1.6,0-2.4-0.2-3.6C3,9.2,1.7,8.8,1.6,7.3L1.6,7.3z"/>
	</g>
	<path class="st1" d="M35.7,18.7c0,0,0.6-0.1,1.3,0.1c0.7,0.2,1.3,0.4,1.2,0.9c-0.1,0.4-0.9,0.2-1.2,0.1
		C36,19.3,35.7,18.7,35.7,18.7L35.7,18.7z"/>
	<polygon class="st2" points="23.2,132.4 14.6,132.4 14.6,130.9 23.2,130.9 23.2,132.4 	"/>
	<path class="st2" d="M22.2,126.6c0,0.1,0.1,0.3,0.1,0.5c0,0.6-0.4,0.9-1,0.9c-0.9,0-1.2-0.5-1.3-1.4H22.2L22.2,126.6z M22.9,125.1
		h-3.7c-1.7,0-2.3,0.9-2.3,2c0,0.9,0.3,1.5,0.5,1.9l1-0.3c-0.2-0.3-0.3-0.8-0.3-1.3c0-0.5,0.3-0.9,0.9-0.9h0.2
		c0.2,1.6,0.7,2.8,2.3,2.8c1.2,0,1.9-0.7,1.9-2.2C23.4,126.2,23.2,125.6,22.9,125.1L22.9,125.1z"/>
	<path class="st2" d="M17.5,118c0.9,0,1.2,0.4,1.2,1.3v0.2h-2.3c-0.1-0.2-0.1-0.4-0.1-0.6C16.3,118.4,16.7,118,17.5,118L17.5,118z
		 M21.1,116.3c-1.2,0-1.8,0.8-2,1.4h0c-0.2-0.5-0.7-1.2-1.7-1.2c-1.3,0-2.1,0.9-2.1,2.6c0,0.9,0.2,1.6,0.5,2h7.2
		c0.3-0.5,0.5-1.2,0.5-2.1C23.4,117.6,22.7,116.3,21.1,116.3L21.1,116.3z M21,117.9c0.8,0,1.3,0.4,1.3,1.1c0,0.2,0,0.4-0.1,0.6h-2.6
		v-0.2C19.6,118.3,20,117.9,21,117.9L21,117.9z"/>
	<path class="st2" d="M16.1,114.1c0,0.4-0.4,0.8-0.8,0.8c-0.4,0-0.8-0.4-0.8-0.8c0-0.4,0.4-0.8,0.8-0.8
		C15.7,113.3,16.1,113.6,16.1,114.1L16.1,114.1z M23.2,114.8h-6.2v-1.5h6.2V114.8L23.2,114.8z"/>
	<path class="st2" d="M19.7,108.7l0.2,1.7c-1.1,0-1.8-0.3-1.8-0.9C18,108.9,18.6,108.7,19.7,108.7L19.7,108.7z M20.5,107.2
		c-2.2-0.1-3.5,0.6-3.5,2.2c0,1.5,1.3,2.3,3.2,2.3c2,0,3.2-0.9,3.2-2.5c0-0.8-0.2-1.4-0.5-1.8l-1,0.3c0.1,0.2,0.3,0.7,0.3,1.3
		c0,0.7-0.4,1.1-1.3,1.2L20.5,107.2L20.5,107.2z"/>
	<path class="st2" d="M23.2,102.9h-4.4c-0.5,0-0.8,0.2-0.8,0.7c0,0.3,0,0.5,0.1,0.6h5.1v1.5h-5.8c-0.3-0.5-0.5-1.2-0.5-2.1
		c0-1.5,0.6-2.2,1.9-2.2h4.4V102.9L23.2,102.9z"/>
	<path class="st2" d="M23.2,96.9h-4.4c-0.5,0-0.8,0.2-0.8,0.7c0,0.3,0,0.5,0.1,0.6h5.1v1.5h-5.8c-0.3-0.5-0.5-1.2-0.5-2.1
		c0-1.5,0.6-2.2,1.9-2.2h4.4V96.9L23.2,96.9z"/>
	<path class="st2" d="M22.2,91.1c0,0.1,0.1,0.3,0.1,0.5c0,0.6-0.4,0.9-1,0.9c-0.9,0-1.2-0.5-1.3-1.4H22.2L22.2,91.1z M22.9,89.7
		h-3.7c-1.7,0-2.3,0.9-2.3,2c0,0.9,0.3,1.5,0.5,1.9l1-0.3c-0.2-0.3-0.3-0.8-0.3-1.3c0-0.5,0.3-0.9,0.9-0.9h0.2
		c0.2,1.6,0.7,2.8,2.3,2.8c1.2,0,1.9-0.7,1.9-2.2C23.4,90.7,23.2,90.1,22.9,89.7L22.9,89.7z"/>
	<polygon class="st2" points="23.2,88 14.6,88 14.6,86.5 23.2,86.5 23.2,88 	"/>
	<path class="st2" d="M19.7,81.8l0.2,1.7c-1.1,0-1.8-0.3-1.8-0.9C18,82.1,18.6,81.8,19.7,81.8L19.7,81.8z M20.5,80.4
		C18.3,80.3,17,81,17,82.6c0,1.5,1.3,2.3,3.2,2.3c2,0,3.2-0.9,3.2-2.5c0-0.8-0.2-1.4-0.5-1.8l-1,0.3c0.1,0.2,0.3,0.7,0.3,1.3
		c0,0.7-0.4,1.1-1.3,1.2L20.5,80.4L20.5,80.4z"/>
	<path class="st2" d="M22.2,73.3c0.1,0.1,0.1,0.3,0.1,0.4c0,0.8-0.8,1.1-2.1,1.1c-1.2,0-2.1-0.2-2.1-1.1c0-0.1,0-0.3,0-0.4H22.2
		L22.2,73.3z M22.9,71.9h-8.3v1.5h2.5c-0.1,0.1-0.1,0.4-0.1,0.7c0,1.3,1.2,2.2,3.2,2.2c2,0,3.2-0.9,3.2-2.5
		C23.4,72.9,23.2,72.3,22.9,71.9L22.9,71.9z"/>
	<path class="st2" d="M16.1,69.4c0,0.4-0.4,0.8-0.8,0.8c-0.4,0-0.8-0.4-0.8-0.8c0-0.4,0.4-0.8,0.8-0.8C15.7,68.6,16.1,69,16.1,69.4
		L16.1,69.4z M23.2,70.2h-6.2v-1.5h6.2V70.2L23.2,70.2z"/>
	<path class="st2" d="M23.2,60.7v1.4L15.4,64v-1.6l4.8-0.9c0.5-0.1,1-0.1,1-0.1v0c0,0-0.5-0.1-1-0.1l-4.8-0.9v-1.5L23.2,60.7
		L23.2,60.7z"/>
	<path class="st2" d="M19.7,55.2l0.2,1.7c-1.1,0-1.8-0.3-1.8-0.9C18,55.4,18.6,55.2,19.7,55.2L19.7,55.2z M20.5,53.7
		c-2.2-0.1-3.5,0.6-3.5,2.2c0,1.5,1.3,2.3,3.2,2.3c2,0,3.2-0.9,3.2-2.5c0-0.8-0.2-1.4-0.5-1.8l-1,0.3c0.1,0.2,0.3,0.7,0.3,1.3
		c0,0.7-0.4,1.1-1.3,1.2L20.5,53.7L20.5,53.7z"/>
	<path class="st2" d="M23.2,49.3h-4.4c-0.5,0-0.8,0.2-0.8,0.7c0,0.3,0,0.5,0.1,0.6h5.1v1.5h-5.8C17.1,51.7,17,51,17,50.1
		c0-1.5,0.6-2.2,1.9-2.2h4.4V49.3L23.2,49.3z"/>
	<path class="st2" d="M19.7,43.3l0.2,1.7C18.8,45,18,44.6,18,44C18,43.5,18.6,43.3,19.7,43.3L19.7,43.3z M20.5,41.8
		C18.3,41.7,17,42.5,17,44c0,1.5,1.3,2.3,3.2,2.3c2,0,3.2-0.9,3.2-2.5c0-0.8-0.2-1.4-0.5-1.8l-1,0.3c0.1,0.2,0.3,0.7,0.3,1.3
		c0,0.7-0.4,1.1-1.3,1.2L20.5,41.8L20.5,41.8z"/>
	<polygon class="st2" points="23.2,40.8 18.2,39 18.2,40.6 17.1,40.6 17.1,37.1 22.1,38.8 22.1,37.1 23.2,37.1 23.2,40.8 	"/>
	<path class="st2" d="M16.1,34.9c0,0.4-0.4,0.8-0.8,0.8c-0.4,0-0.8-0.4-0.8-0.8c0-0.4,0.4-0.8,0.8-0.8
		C15.7,34.1,16.1,34.5,16.1,34.9L16.1,34.9z M23.2,35.7h-6.2v-1.5h6.2V35.7L23.2,35.7z"/>
	<path class="st2" d="M22.2,29.9c0,0.1,0.1,0.3,0.1,0.5c0,0.6-0.4,0.9-1,0.9c-0.9,0-1.2-0.5-1.3-1.4H22.2L22.2,29.9z M22.9,28.5
		h-3.7c-1.7,0-2.3,0.9-2.3,2c0,0.9,0.3,1.5,0.5,1.9l1-0.3c-0.2-0.3-0.3-0.8-0.3-1.3c0-0.5,0.3-0.9,0.9-0.9h0.2
		c0.2,1.6,0.7,2.8,2.3,2.8c1.2,0,1.9-0.7,1.9-2.2C23.4,29.5,23.2,28.9,22.9,28.5L22.9,28.5z"/>
	<polygon class="st1" points="36.7,24 158.3,24 158.3,146.3 36.7,146.3 36.7,24 	"/>
	<path class="st2" d="M51.4,111.4v-10.6h-1.8v3.5c-0.2-0.1-0.4-0.1-0.9-0.1c-1.6,0-2.7,1.5-2.7,3.9c0,2.5,1.1,3.9,3,3.9
		C50.1,112,50.8,111.8,51.4,111.4L51.4,111.4z M49.5,110.5c-0.1,0.1-0.3,0.1-0.5,0.1c-0.9,0-1.3-1-1.3-2.6c0-1.4,0.3-2.6,1.3-2.6
		c0.2,0,0.3,0,0.4,0.1V110.5L49.5,110.5z M55.6,101.4c-0.1-0.4-0.3-0.6-0.9-0.6c-0.5,0-0.9,0.3-1.1,0.6l-1.1,3.9h1.2L55.6,101.4
		L55.6,101.4z M63.1,111.9l-2.6-9.6h-1.7l-2.7,9.6h1.7l0.5-2h2.4l0.5,2H63.1L63.1,111.9z M60.4,108.5h-1.8l0.7-2.8
		c0.1-0.6,0.3-1.2,0.3-1.2h0c0,0,0.1,0.7,0.2,1.2L60.4,108.5L60.4,108.5z M67.3,104.2c-1.7-0.1-2.7,0.1-3.4,0.5v7.1h1.8v-6.2
		c0.3-0.2,0.8-0.2,1.2,0L67.3,104.2L67.3,104.2z M71.3,111.8v-1.3c-0.1,0-0.2,0.1-0.4,0.1c-0.4,0-0.6-0.2-0.6-0.9v-3.9h1v-1.4h-1
		v-2.2l-1.8,0.6v1.6h-0.7v1.4h0.7v4.1c0,1.3,0.7,2.2,1.9,2.2C70.9,112,71.2,111.9,71.3,111.8L71.3,111.8z M77.7,108.5
		c0.1-2.7-0.8-4.3-2.7-4.3c-1.8,0-2.8,1.6-2.8,3.9c0,2.5,1.1,3.9,3.1,3.9c1,0,1.8-0.2,2.2-0.6l-0.4-1.3c-0.3,0.2-0.8,0.4-1.6,0.4
		c-0.9,0-1.4-0.5-1.5-1.6L77.7,108.5L77.7,108.5z M75.9,107.5l-2,0.3c0-1.3,0.4-2.3,1.1-2.3S75.9,106.2,75.9,107.5L75.9,107.5z"/>
	<path class="st2" d="M48.2,97.2v-9.6h-1.9v9.6H48.2L48.2,97.2z M55.1,97.2v-5.3c0-1.6-0.9-2.4-2.7-2.4c-1.1,0-2,0.2-2.6,0.6v7.1
		h1.8v-6.2c0.2-0.1,0.4-0.1,0.8-0.1c0.6,0,0.9,0.4,0.9,1v5.3H55.1L55.1,97.2z M59.7,97.1v-1.3c-0.1,0-0.2,0.1-0.4,0.1
		c-0.4,0-0.6-0.2-0.6-0.9V91h1v-1.4h-1v-2.2L56.9,88v1.6h-0.7V91h0.7v4.1c0,1.3,0.7,2.2,1.9,2.2C59.3,97.3,59.6,97.2,59.7,97.1
		L59.7,97.1z M66.1,93.8c0.1-2.7-0.8-4.3-2.7-4.3c-1.8,0-2.8,1.6-2.8,3.9c0,2.5,1.1,3.9,3.1,3.9c1,0,1.8-0.2,2.2-0.6l-0.4-1.3
		c-0.3,0.2-0.8,0.4-1.6,0.4c-0.9,0-1.4-0.5-1.5-1.6L66.1,93.8L66.1,93.8z M64.3,92.8l-2,0.3c0-1.3,0.4-2.3,1.1-2.3
		S64.3,91.5,64.3,92.8L64.3,92.8z M70.8,89.5c-1.7-0.1-2.7,0.1-3.4,0.5v7.1h1.8v-6.2c0.3-0.2,0.8-0.2,1.2,0L70.8,89.5L70.8,89.5z
		 M76.9,97.2v-5.3c0-1.6-0.9-2.4-2.7-2.4c-1.1,0-2,0.2-2.6,0.6v7.1h1.8v-6.2c0.2-0.1,0.4-0.1,0.8-0.1c0.6,0,0.9,0.4,0.9,1v5.3H76.9
		L76.9,97.2z M83.3,96.7v-4.5c0-2.1-1.1-2.8-2.5-2.8c-1.1,0-1.9,0.3-2.3,0.6l0.4,1.2c0.4-0.2,1-0.4,1.6-0.4c0.7,0,1.1,0.3,1.1,1.1
		v0.3c-2,0.3-3.4,0.9-3.4,2.8c0,1.5,0.9,2.4,2.7,2.4C82,97.3,82.8,97.1,83.3,96.7L83.3,96.7z M81.6,95.9c-0.1,0.1-0.4,0.1-0.6,0.1
		c-0.7,0-1.1-0.4-1.1-1.2c0-1.1,0.6-1.5,1.7-1.6V95.9L81.6,95.9z M88.9,97.2v-1.4h-2.1l2.1-6.2h-4.3V91h2l-2.2,6.2H88.9L88.9,97.2z
		 M91.9,87.4c0-0.5-0.4-1-1-1c-0.5,0-1,0.4-1,1c0,0.5,0.4,1,1,1C91.5,88.4,91.9,87.9,91.9,87.4L91.9,87.4z M91.9,97.2v-7.5h-1.8v7.5
		H91.9L91.9,97.2z M98.7,93.4c0-2.2-0.9-3.9-2.8-3.9c-1.8,0-2.8,1.7-2.8,3.9c0,2.2,0.9,3.9,2.8,3.9C97.8,97.3,98.7,95.6,98.7,93.4
		L98.7,93.4z M96.9,93.4c0,1.4-0.1,2.5-1,2.5c-0.8,0-0.9-1.1-0.9-2.5s0.1-2.5,0.9-2.5C96.8,90.8,96.9,92,96.9,93.4L96.9,93.4z
		 M105.4,97.2v-5.3c0-1.6-0.9-2.4-2.7-2.4c-1.1,0-2,0.2-2.6,0.6v7.1h1.8v-6.2c0.2-0.1,0.4-0.1,0.8-0.1c0.6,0,0.9,0.4,0.9,1v5.3
		H105.4L105.4,97.2z M111.8,96.7v-4.5c0-2.1-1.1-2.8-2.5-2.8c-1.1,0-1.9,0.3-2.3,0.6l0.4,1.2c0.4-0.2,1-0.4,1.6-0.4
		c0.7,0,1.1,0.3,1.1,1.1v0.3c-2,0.3-3.4,0.9-3.4,2.8c0,1.5,0.9,2.4,2.7,2.4C110.5,97.3,111.2,97.1,111.8,96.7L111.8,96.7z M110,95.9
		c-0.1,0.1-0.4,0.1-0.6,0.1c-0.7,0-1.1-0.4-1.1-1.2c0-1.1,0.6-1.5,1.7-1.6V95.9L110,95.9z M115.1,97.2v-11h-1.8v11H115.1L115.1,97.2
		z M122,93.8c0.1-2.7-0.8-4.3-2.7-4.3c-1.8,0-2.8,1.6-2.8,3.9c0,2.5,1.1,3.9,3,3.9c1,0,1.8-0.2,2.2-0.6l-0.4-1.3
		c-0.3,0.2-0.8,0.4-1.6,0.4c-0.9,0-1.4-0.5-1.5-1.6L122,93.8L122,93.8z M120.2,92.8l-2,0.3c0-1.3,0.4-2.3,1.1-2.3
		C119.9,90.8,120.2,91.5,120.2,92.8L120.2,92.8z"/>
	<path class="st2" d="M51,79.5c0-1.8-1.1-3.1-3.3-3l0.2-2h2.8v-1.7h-4.1L46.3,78c2.2-0.5,2.9,0.5,2.9,1.6c0,0.8-0.6,1.5-1.4,1.5
		c-0.7,0-1.1-0.2-1.4-0.4L45.8,82c0.5,0.4,1.2,0.6,2.3,0.6C49.8,82.6,51,81.2,51,79.5L51,79.5z M57.9,72.8h-5.5v1.7h3.2l-2.9,8h2.2
		c0.3-1.6,1-4,1.9-6.7L57.9,72.8L57.9,72.8z M61.1,81.4c0-0.6-0.5-1.1-1.2-1.1c-0.6,0-1.1,0.5-1.1,1.2c0,0.6,0.5,1.1,1.2,1.1
		C60.6,82.6,61.1,82.1,61.1,81.4L61.1,81.4z M70.1,82.5V81h-2.2v-2.7h2v-1.4h-2v-2.5h2.2v-1.5H66v9.6H70.1L70.1,82.5z M75.3,80.4
		c0-1.1-0.6-1.7-1.3-2.2c-0.7-0.5-1-0.8-1-1.3c0-0.4,0.3-0.7,0.7-0.7c0.5,0,0.8,0.2,1,0.4l0.4-1.2c-0.4-0.3-1-0.6-1.8-0.6
		c-1.3,0-2.1,0.9-2.1,2.2c0,1,0.6,1.7,1.3,2.2c0.7,0.5,0.9,0.7,0.9,1.3c0,0.4-0.3,0.7-0.8,0.7c-0.5,0-0.9-0.2-1.1-0.4L71,82
		c0.4,0.4,1,0.6,1.9,0.6C74.3,82.6,75.3,81.7,75.3,80.4L75.3,80.4z M81.9,78.7c0-2.6-1.2-3.9-3.1-3.9c-1,0-1.8,0.2-2.3,0.6v10.1h1.8
		v-3.1c0.2,0.1,0.4,0.2,0.9,0.2C80.8,82.6,81.9,81.1,81.9,78.7L81.9,78.7z M80.1,78.7c0,1.2-0.3,2.6-1.3,2.6c-0.2,0-0.3,0-0.4-0.1
		v-5.1c0.1-0.1,0.3-0.1,0.5-0.1C79.8,76.1,80.1,77.4,80.1,78.7L80.1,78.7z M88.5,78.7c0-2.2-0.9-3.9-2.8-3.9c-1.8,0-2.8,1.7-2.8,3.9
		c0,2.2,0.9,3.9,2.8,3.9C87.6,82.6,88.5,80.9,88.5,78.7L88.5,78.7z M86.7,78.7c0,1.4-0.1,2.5-1,2.5c-0.8,0-0.9-1.1-0.9-2.5
		s0.1-2.5,0.9-2.5C86.6,76.1,86.7,77.3,86.7,78.7L86.7,78.7z M93.8,80.4c0-1.1-0.6-1.7-1.3-2.2c-0.7-0.5-1-0.8-1-1.3
		c0-0.4,0.3-0.7,0.7-0.7c0.5,0,0.8,0.2,1,0.4l0.4-1.2c-0.4-0.3-1-0.6-1.8-0.6c-1.3,0-2.1,0.9-2.1,2.2c0,1,0.6,1.7,1.3,2.2
		c0.7,0.5,0.9,0.7,0.9,1.3c0,0.4-0.3,0.7-0.8,0.7c-0.5,0-0.9-0.2-1.1-0.4L89.5,82c0.4,0.4,1,0.6,1.9,0.6
		C92.8,82.6,93.8,81.7,93.8,80.4L93.8,80.4z M96.9,72.7c0-0.5-0.4-1-1-1c-0.5,0-1,0.4-1,1c0,0.5,0.4,1,1,1
		C96.4,73.7,96.9,73.2,96.9,72.7L96.9,72.7z M96.8,82.5v-7.5H95v7.5H96.8L96.8,82.5z M102.4,82.5v-1.4h-2.1l2.1-6.2h-4.3v1.4h2
		l-2.2,6.2H102.4L102.4,82.5z M105.4,72.7c0-0.5-0.4-1-1-1c-0.5,0-1,0.4-1,1c0,0.5,0.4,1,1,1C105,73.7,105.4,73.2,105.4,72.7
		L105.4,72.7z M105.4,82.5v-7.5h-1.8v7.5H105.4L105.4,82.5z M112.2,78.7c0-2.2-0.9-3.9-2.8-3.9c-1.8,0-2.8,1.7-2.8,3.9
		c0,2.2,0.9,3.9,2.8,3.9C111.3,82.6,112.2,80.9,112.2,78.7L112.2,78.7z M110.4,78.7c0,1.4-0.1,2.5-1,2.5c-0.8,0-0.9-1.1-0.9-2.5
		s0.1-2.5,0.9-2.5C110.3,76.1,110.4,77.3,110.4,78.7L110.4,78.7z M118.9,82.5v-5.3c0-1.6-0.9-2.4-2.7-2.4c-1.1,0-2,0.2-2.6,0.6v7.1
		h1.8v-6.2c0.2-0.1,0.4-0.1,0.8-0.1c0.6,0,0.9,0.4,0.9,1v5.3H118.9L118.9,82.5z M125.7,79.1c0.1-2.7-0.8-4.3-2.7-4.3
		c-1.8,0-2.8,1.6-2.8,3.9c0,2.5,1.1,3.9,3.1,3.9c1,0,1.8-0.2,2.2-0.6l-0.4-1.3c-0.3,0.2-0.8,0.4-1.6,0.4c-0.9,0-1.4-0.5-1.5-1.6
		L125.7,79.1L125.7,79.1z M123.9,78.1l-2,0.3c0-1.3,0.4-2.3,1.1-2.3C123.6,76.1,123.9,76.8,123.9,78.1L123.9,78.1z"/>
	<path class="st2" d="M51.2,127.1c0-1.4-0.7-2.4-2.5-2.4c-0.8,0-1.5,0.2-1.9,0.4v7.2h1.5v-2.9l0.2,0
		C50.4,129.7,51.2,128.6,51.2,127.1L51.2,127.1z M49.7,127.1c0,0.7-0.3,1.4-1.3,1.3l-0.2,0v-2.6c0.1,0,0.3-0.1,0.4-0.1
		C49.5,125.8,49.7,126.4,49.7,127.1L49.7,127.1z M55.7,132.1v-3.5c0-1.6-0.8-2.2-1.9-2.2c-0.9,0-1.5,0.3-1.8,0.4l0.3,0.9
		c0.3-0.2,0.8-0.3,1.3-0.3c0.5,0,0.8,0.3,0.8,0.8v0.2c-1.6,0.2-2.7,0.7-2.7,2.2c0,1.2,0.7,1.9,2.1,1.9
		C54.7,132.5,55.3,132.4,55.7,132.1L55.7,132.1z M54.3,131.4c-0.1,0-0.3,0.1-0.5,0.1c-0.6,0-0.9-0.3-0.9-0.9c0-0.9,0.5-1.2,1.4-1.3
		V131.4L54.3,131.4z M59.5,126.4c-1.4-0.1-2.1,0.1-2.7,0.4v5.6h1.4v-4.9c0.3-0.1,0.6-0.1,1,0L59.5,126.4L59.5,126.4z M62.7,132.3v-1
		c-0.1,0-0.2,0.1-0.3,0.1c-0.3,0-0.5-0.2-0.5-0.7v-3.1h0.8v-1.1h-0.8v-1.7l-1.4,0.5v1.3h-0.5v1.1h0.5v3.2c0,1,0.5,1.7,1.5,1.7
		C62.3,132.5,62.6,132.4,62.7,132.3L62.7,132.3z M67.7,129.7c0.1-2.1-0.6-3.4-2.1-3.4c-1.4,0-2.2,1.3-2.2,3.1c0,1.9,0.8,3.1,2.4,3.1
		c0.8,0,1.4-0.2,1.7-0.4l-0.3-1c-0.2,0.1-0.6,0.3-1.2,0.3c-0.7,0-1.1-0.4-1.2-1.3L67.7,129.7L67.7,129.7z M66.3,129l-1.6,0.2
		c0-1,0.3-1.8,0.9-1.8C66.1,127.4,66.3,128,66.3,129L66.3,129z M71.8,132.1l-0.3-1c-0.1,0.1-0.3,0.2-0.6,0.2c-0.6,0-0.9-0.7-0.9-1.9
		c0-1.2,0.3-1.9,0.9-1.9c0.3,0,0.5,0.1,0.6,0.2l0.3-0.9c-0.2-0.2-0.6-0.4-1.2-0.4c-1.1,0-2,1-2,3.1c0,2,0.8,3.1,2,3.1
		C71.3,132.5,71.6,132.3,71.8,132.1L71.8,132.1z M74.1,124.7c0-0.4-0.4-0.8-0.8-0.8c-0.4,0-0.8,0.3-0.8,0.8c0,0.4,0.3,0.8,0.8,0.8
		C73.8,125.5,74.1,125.2,74.1,124.7L74.1,124.7z M74.1,132.4v-5.9h-1.4v5.9H74.1L74.1,132.4z M79.6,129.4c0-2-0.9-3-2.4-3
		c-0.8,0-1.4,0.2-1.8,0.4v8h1.4v-2.4c0.1,0.1,0.3,0.1,0.7,0.1C78.7,132.5,79.6,131.3,79.6,129.4L79.6,129.4z M78.1,129.4
		c0,1-0.2,2-1.1,2c-0.1,0-0.3,0-0.4-0.1v-4c0.1,0,0.2-0.1,0.4-0.1C77.9,127.4,78.1,128.4,78.1,129.4L78.1,129.4z M84.4,132.1v-3.5
		c0-1.6-0.8-2.2-1.9-2.2c-0.9,0-1.5,0.3-1.8,0.4l0.3,0.9c0.3-0.2,0.8-0.3,1.3-0.3c0.5,0,0.8,0.3,0.8,0.8v0.2
		c-1.6,0.2-2.7,0.7-2.7,2.2c0,1.2,0.7,1.9,2.1,1.9C83.4,132.5,84,132.4,84.4,132.1L84.4,132.1z M83.1,131.4c-0.1,0-0.3,0.1-0.5,0.1
		c-0.6,0-0.9-0.3-0.9-0.9c0-0.9,0.5-1.2,1.4-1.3V131.4L83.1,131.4z M88.8,132.4v-1.1h-1.7l1.6-4.9h-3.4v1.1H87l-1.7,4.9H88.8
		L88.8,132.4z M91.2,124.7c0-0.4-0.4-0.8-0.8-0.8c-0.4,0-0.8,0.3-0.8,0.8c0,0.4,0.3,0.8,0.8,0.8C90.8,125.5,91.2,125.2,91.2,124.7
		L91.2,124.7z M91.1,132.4v-5.9h-1.4v5.9H91.1L91.1,132.4z M96.5,129.4c0-1.8-0.7-3.1-2.2-3.1c-1.5,0-2.2,1.3-2.2,3.1
		c0,1.8,0.7,3.1,2.2,3.1C95.8,132.5,96.5,131.2,96.5,129.4L96.5,129.4z M95.1,129.4c0,1.1-0.1,1.9-0.7,1.9c-0.6,0-0.7-0.9-0.7-2
		s0.1-2,0.7-2C95,127.4,95.1,128.3,95.1,129.4L95.1,129.4z M101.7,132.4v-4.2c0-1.3-0.7-1.8-2.1-1.8c-0.9,0-1.6,0.2-2,0.4v5.6H99
		v-4.9c0.2-0.1,0.3-0.1,0.6-0.1c0.5,0,0.7,0.3,0.7,0.8v4.2H101.7L101.7,132.4z M104.4,124.7c0-0.4-0.4-0.8-0.8-0.8
		c-0.4,0-0.8,0.3-0.8,0.8c0,0.4,0.3,0.8,0.8,0.8C104.1,125.5,104.4,125.2,104.4,124.7L104.4,124.7z M104.4,132.4v-5.9h-1.4v5.9
		H104.4L104.4,132.4z M113.1,132.4v-7.6h-1.3v3.9c0,0.4,0,0.7,0,0.7h0c0,0-0.2-0.4-0.3-0.7l-1.9-3.9h-1.3v7.6h1.3V128
		c0-0.4,0-0.7,0-0.7h0c0,0,0.1,0.3,0.3,0.7l2.1,4.4H113.1L113.1,132.4z M118.2,132.1v-3.5c0-1.6-0.8-2.2-1.9-2.2
		c-0.9,0-1.5,0.3-1.8,0.4l0.3,0.9c0.3-0.2,0.8-0.3,1.3-0.3c0.5,0,0.8,0.3,0.8,0.8v0.2c-1.6,0.2-2.7,0.7-2.7,2.2
		c0,1.2,0.7,1.9,2.1,1.9C117.2,132.5,117.8,132.4,118.2,132.1L118.2,132.1z M116.9,131.4c-0.1,0-0.3,0.1-0.5,0.1
		c-0.6,0-0.9-0.3-0.9-0.9c0-0.9,0.5-1.2,1.4-1.3V131.4L116.9,131.4z M122.6,132.4v-1.1h-1.7l1.6-4.9h-3.4v1.1h1.6l-1.7,4.9H122.6
		L122.6,132.4z M125,124.7c0-0.4-0.4-0.8-0.8-0.8c-0.4,0-0.8,0.3-0.8,0.8c0,0.4,0.3,0.8,0.8,0.8C124.6,125.5,125,125.2,125,124.7
		L125,124.7z M124.9,132.4v-5.9h-1.4v5.9H124.9L124.9,132.4z M130.3,129.4c0-1.8-0.7-3.1-2.2-3.1c-1.5,0-2.2,1.3-2.2,3.1
		c0,1.8,0.7,3.1,2.2,3.1C129.6,132.5,130.3,131.2,130.3,129.4L130.3,129.4z M128.9,129.4c0,1.1-0.1,1.9-0.7,1.9
		c-0.6,0-0.7-0.9-0.7-2s0.1-2,0.7-2C128.8,127.4,128.9,128.3,128.9,129.4L128.9,129.4z M135.5,132.4v-4.2c0-1.3-0.7-1.8-2.1-1.8
		c-0.9,0-1.6,0.2-2,0.4v5.6h1.4v-4.9c0.2-0.1,0.3-0.1,0.6-0.1c0.5,0,0.7,0.3,0.7,0.8v4.2H135.5L135.5,132.4z M140.6,132.1v-3.5
		c0-1.6-0.8-2.2-1.9-2.2c-0.9,0-1.5,0.3-1.8,0.4l0.3,0.9c0.3-0.2,0.8-0.3,1.3-0.3c0.5,0,0.8,0.3,0.8,0.8v0.2
		c-1.6,0.2-2.7,0.7-2.7,2.2c0,1.2,0.7,1.9,2.1,1.9C139.5,132.5,140.1,132.4,140.6,132.1L140.6,132.1z M139.2,131.4
		c-0.1,0-0.3,0.1-0.5,0.1c-0.6,0-0.9-0.3-0.9-0.9c0-0.9,0.5-1.2,1.4-1.3V131.4L139.2,131.4z M143.2,132.4v-8.6h-1.4v8.6H143.2
		L143.2,132.4z M145.9,124.7c0-0.4-0.4-0.8-0.8-0.8c-0.4,0-0.8,0.3-0.8,0.8c0,0.4,0.3,0.8,0.8,0.8
		C145.6,125.5,145.9,125.2,145.9,124.7L145.9,124.7z M145.9,132.4v-5.9h-1.4v5.9H145.9L145.9,132.4z"/>
</g>
</svg>
